<svg width="266" height="74" viewBox="0 0 266 74" fill="none" xmlns="http://www.w3.org/2000/svg">
<g clip-path="url(#clip0)">
<path d="M0.5 1.20001H21.3V7.80001H8V16.2H21V22.8H8V31.8H21.3V38.4H0.5V1.20001Z" stroke="black" stroke-miterlimit="10"/>
<path d="M26.8 10.8H33V14.4C34.2 11.9 36.5 9.99999 40.6 9.89999V16.5H40.3C35.7 16.5 33.3 18.6 33.3 23.4V38.2H26.7V10.8H26.8Z" stroke="black" stroke-miterlimit="10"/>
<path d="M44.6 1.20001H51.2V7.00001H44.6V1.20001ZM44.6 10.8H51.2V38.3H44.6V10.8Z" stroke="black" stroke-miterlimit="10"/>
<path d="M85 28.2C83.5 34.3 78 39.1 70.9 39.1C62.2 39.1 56.2 32.3 56.2 24.5C56.2 16.4 62.5 9.89999 70.7 9.89999C77.6 9.89999 83.5 14.2 85.1 21H78.4C77.2 18.1 74.6 16 71 16C68.6 15.9 66.8 16.8 65.1 18.3C63.7 19.8 62.9 22 62.9 24.4C62.9 29.4 66.4 32.9 71 32.9C75.1 32.9 77.4 30.4 78.4 28.2H85Z" stroke="black" stroke-miterlimit="10"/>
<path d="M110.5 26.7C110.7 31.7 114.1 32.7 115.7 32.7C118.6 32.7 120.8 30.4 120.8 27.8C120.8 24.7 118.1 23.8 113 21.8C110.2 20.8 103.8 18.5 103.8 11.5C103.8 4.4 110 0.5 116 0.5C120.9 0.5 127.4 3.1 127.7 11.3H120.3C120 9.6 119.3 6.8 115.7 6.8C113.2 6.8 111.2 8.5 111.2 11C111.2 13.8 113.2 14.5 119.4 17.1C125.1 19.6 128.2 22.3 128.2 27.5C128.2 33.5 124.5 39 115.8 39C107.4 39 103 33.9 103.1 26.8H110.5V26.7Z" stroke="black" stroke-miterlimit="10"/>
<path d="M134.6 15.8H130V10.7H134.6V1.20001H141.1V10.8H145.8V15.9H141.1V38.3H134.6V15.8Z" stroke="black" stroke-miterlimit="10"/>
<path d="M154.8 26.7C155.1 31.1 159 33.6 162.8 33.5C166 33.5 168.2 32.1 169.4 29.8H176.2C174.9 32.9 173 35.2 170.7 36.7C168.4 38.3 165.7 39.1 162.8 39.1C154.3 39.1 148.3 32.2 148.3 24.6C148.3 16.8 154.4 9.89999 162.7 9.89999C166.8 9.89999 170.4 11.4 172.9 14.1C176.3 17.6 177.5 21.9 177 26.7H154.8V26.7ZM170.5 21.7C170.3 19.1 167.5 15.4 162.7 15.5C157.8 15.5 155.2 19 154.9 21.7H170.5Z" stroke="black" stroke-miterlimit="10"/>
<path d="M188 26.7C188.3 31.1 192.2 33.6 196 33.5C199.2 33.5 201.4 32.1 202.6 29.8H209.4C208.1 32.9 206.2 35.2 203.9 36.7C201.6 38.3 198.9 39.1 196 39.1C187.5 39.1 181.5 32.2 181.5 24.6C181.5 16.8 187.6 9.89999 195.9 9.89999C200 9.89999 203.6 11.4 206.1 14.1C209.5 17.6 210.7 21.9 210.2 26.7H188V26.7ZM203.7 21.7C203.5 19.1 200.7 15.4 195.9 15.5C191 15.5 188.4 19 188.1 21.7H203.7Z" stroke="black" stroke-miterlimit="10"/>
<path d="M215.1 1.20001H221.7V38.2H215.1V1.20001Z" stroke="black" stroke-miterlimit="10"/>
<path d="M234 26.7C234.3 31.1 238.2 33.6 242 33.5C245.2 33.5 247.4 32.1 248.6 29.8H255.4C254.1 32.9 252.2 35.2 249.9 36.7C247.6 38.3 244.9 39.1 242 39.1C233.5 39.1 227.5 32.2 227.5 24.6C227.5 16.8 233.6 9.89999 241.9 9.89999C246 9.89999 249.6 11.4 252.1 14.1C255.5 17.6 256.7 21.9 256.2 26.7H234V26.7ZM249.6 21.7C249.4 19.1 246.6 15.4 241.8 15.5C236.9 15.5 234.3 19 234 21.7H249.6Z" stroke="black" stroke-miterlimit="10"/>
<path d="M0.5 52.5H2.5V62.3C2.5 63.1 2.6 63.8 2.8 64.4C3 65 3.2 65.4 3.5 65.8C3.8 66.1 4.1 66.4 4.5 66.6C4.9 66.8 5.3 66.8 5.8 66.8C6.3 66.8 6.7 66.7 7.1 66.6C7.5 66.4 7.9 66.2 8.2 65.8C8.5 65.4 8.7 65 8.9 64.4C9.1 63.8 9.2 63.1 9.2 62.3V52.5H11.1V62.3C11.1 63.4 11 64.4 10.7 65.2C10.4 66 10.1 66.6 9.6 67.1C9.1 67.6 8.6 68 7.9 68.2C7.3 68.4 6.5 68.5 5.8 68.5C5 68.5 4.3 68.4 3.7 68.2C3 67.9 2.5 67.6 2 67.1C1.5 66.6 1.2 66 0.9 65.2C0.6 64.4 0.5 63.5 0.5 62.3V52.5Z" fill="black"/>
<path d="M19.1 60.1L14.7 52.5H16.9L19.1 56.5C19.3 56.9 19.5 57.2 19.7 57.6C19.9 57.9 20.1 58.3 20.4 58.8H20.5C20.7 58.3 20.9 57.9 21.1 57.6C21.3 57.3 21.4 56.9 21.6 56.5L23.8 52.5H25.9L21.5 60.2L26.2 68.2H24L21.6 64C21.4 63.6 21.2 63.2 20.9 62.8C20.7 62.4 20.4 61.9 20.2 61.5H20.1C19.9 62 19.7 62.4 19.5 62.8C19.3 63.2 19.1 63.6 18.9 64L16.5 68.2H14.4L19.1 60.1Z" fill="black"/>
<path d="M55.5 68.5C54.5 68.2 53.4 67.6 52.2 66.7C51.6 67.3 51 67.7 50.3 68C49.6 68.3 48.8 68.5 47.9 68.5C47.2 68.5 46.6 68.4 46 68.2C45.4 68 44.9 67.7 44.5 67.3C44.1 66.9 43.8 66.5 43.5 65.9C43.3 65.4 43.2 64.8 43.2 64.1C43.2 63.6 43.3 63.1 43.4 62.7C43.6 62.3 43.8 61.9 44.1 61.5C44.4 61.1 44.7 60.8 45 60.5C45.4 60.2 45.7 59.9 46.1 59.6C45.8 58.9 45.5 58.3 45.3 57.7C45.1 57.1 45 56.5 45 55.9C45 55.4 45.1 54.9 45.3 54.4C45.5 54 45.7 53.6 46 53.2C46.3 52.8 46.7 52.6 47.1 52.4C47.5 52.2 48 52.1 48.5 52.1C49.5 52.1 50.2 52.4 50.8 53C51.3 53.6 51.6 54.3 51.6 55.3C51.6 55.8 51.5 56.3 51.3 56.7C51.1 57.1 50.8 57.5 50.5 57.9C50.2 58.3 49.8 58.6 49.4 59C49 59.3 48.6 59.7 48.2 60C48.7 60.8 49.3 61.6 50 62.4C50.7 63.2 51.4 63.8 52.1 64.5C52.5 63.9 52.9 63.2 53.3 62.4C53.6 61.6 53.9 60.8 54.1 59.9H55.9C55.6 60.9 55.3 61.9 54.8 62.9C54.4 63.8 53.9 64.7 53.3 65.6C54.3 66.3 55.2 66.8 56 67.1L55.5 68.5ZM45.1 64C45.1 64.4 45.2 64.8 45.3 65.2C45.5 65.6 45.7 65.9 45.9 66.1C46.2 66.4 46.5 66.6 46.9 66.7C47.3 66.8 47.7 66.9 48.1 66.9C48.6 66.9 49.1 66.8 49.5 66.6C50 66.4 50.4 66.1 50.8 65.7C50 65 49.3 64.3 48.6 63.5C47.9 62.7 47.3 61.9 46.8 61C46.3 61.4 45.9 61.9 45.5 62.4C45.3 62.8 45.1 63.4 45.1 64ZM46.8 55.9C46.8 56.3 46.9 56.8 47 57.2C47.1 57.6 47.3 58.1 47.5 58.6C47.8 58.4 48.2 58.1 48.4 57.9C48.7 57.7 49 57.4 49.2 57.1C49.4 56.8 49.6 56.6 49.7 56.3C49.8 56 49.9 55.7 49.9 55.3C49.9 54.8 49.8 54.4 49.6 54.1C49.4 53.8 49 53.6 48.5 53.6C47.9 53.6 47.5 53.8 47.2 54.2C46.9 54.7 46.8 55.2 46.8 55.9Z" fill="black"/>
<path d="M72.5 60.3C72.5 59 72.7 57.9 73 56.9C73.3 55.9 73.8 55 74.4 54.3C75 53.6 75.8 53.1 76.6 52.7C77.5 52.3 78.4 52.1 79.4 52.1C79.9 52.1 80.4 52.2 80.8 52.3C81.2 52.4 81.6 52.6 82 52.7C82.4 52.9 82.7 53.1 83 53.3C83.3 53.5 83.5 53.8 83.8 54L82.7 55.3C82.3 54.9 81.9 54.5 81.4 54.3C80.9 54 80.3 53.9 79.5 53.9C78.8 53.9 78.1 54 77.5 54.3C76.9 54.6 76.4 55 76 55.6C75.6 56.2 75.2 56.8 75 57.6C74.8 58.4 74.7 59.3 74.7 60.2C74.7 61.2 74.8 62.1 75 62.9C75.2 63.7 75.5 64.4 75.9 64.9C76.3 65.5 76.8 65.9 77.4 66.2C78 66.5 78.7 66.7 79.5 66.7C80.1 66.7 80.6 66.6 81.1 66.4C81.6 66.2 82 66 82.3 65.7V61.6H79V60H84V66.6C83.5 67.1 82.8 67.5 82 67.9C81.2 68.3 80.3 68.4 79.3 68.4C78.3 68.4 77.4 68.2 76.6 67.8C75.8 67.4 75 66.9 74.4 66.2C73.8 65.5 73.3 64.6 73 63.6C72.6 62.8 72.5 61.6 72.5 60.3Z" fill="black"/>
<path d="M89.2 56.5H90.8L91 59.3H91.1C91.7 58.4 92.5 57.6 93.3 57.1C94.2 56.6 95.2 56.3 96.3 56.3C96.7 56.3 97.1 56.3 97.5 56.4C97.9 56.5 98.2 56.6 98.6 56.8L98.2 58.5C97.8 58.4 97.4 58.3 97.1 58.2C96.8 58.1 96.5 58 96 58C95.1 58 94.3 58.3 93.5 58.8C92.7 59.3 91.9 60.2 91.2 61.4V68.2H89.2V56.5Z" fill="black"/>
<path d="M101.2 65.2C101.2 64.5 101.4 64 101.7 63.5C102 63 102.5 62.6 103.2 62.2C103.9 61.8 104.8 61.6 105.8 61.3C106.9 61.1 108.2 60.9 109.7 60.8C109.7 60.4 109.6 60 109.5 59.7C109.4 59.3 109.2 59 109 58.8C108.8 58.6 108.4 58.3 108.1 58.2C107.7 58 107.2 58 106.7 58C105.9 58 105.2 58.1 104.5 58.4C103.8 58.7 103.2 59 102.6 59.3L101.8 58C102.1 57.8 102.4 57.6 102.8 57.4C103.2 57.2 103.6 57 104 56.9C104.4 56.7 104.9 56.6 105.4 56.5C105.9 56.4 106.4 56.3 106.9 56.3C108.5 56.3 109.7 56.7 110.5 57.6C111.3 58.5 111.7 59.6 111.7 61.1V68.3H110L109.8 66.7H109.7C109 67.2 108.3 67.7 107.5 68C106.7 68.4 105.9 68.6 105.1 68.6C104.6 68.6 104 68.5 103.6 68.4C103.1 68.2 102.7 68 102.3 67.8C101.9 67.5 101.7 67.2 101.4 66.8C101.1 66.4 101.2 65.7 101.2 65.2ZM103.1 65C103.1 65.3 103.2 65.6 103.3 65.9C103.4 66.1 103.6 66.3 103.9 66.5C104.1 66.7 104.4 66.8 104.7 66.8C105 66.9 105.3 66.9 105.7 66.9C106.4 66.9 107 66.8 107.7 66.5C108.3 66.2 109 65.8 109.7 65.2V62.1C108.5 62.2 107.4 62.3 106.6 62.5C105.8 62.7 105.1 62.9 104.6 63.1C104.1 63.3 103.7 63.6 103.5 63.9C103.2 64.3 103.1 64.7 103.1 65Z" fill="black"/>
<path d="M118 69.2V73.1H116V56.5H117.6L117.8 58H117.9C118.4 57.5 119.1 57.1 119.8 56.7C120.5 56.4 121.2 56.2 121.9 56.2C122.7 56.2 123.4 56.3 124 56.6C124.6 56.9 125.1 57.3 125.5 57.8C125.9 58.3 126.2 58.9 126.4 59.7C126.6 60.4 126.7 61.2 126.7 62.2C126.7 63.2 126.6 64.1 126.3 64.9C126 65.7 125.6 66.3 125.1 66.9C124.6 67.4 124 67.9 123.4 68.1C122.8 68.4 122.1 68.5 121.4 68.5C120.9 68.5 120.3 68.4 119.6 68.1C118.9 67.8 118.4 67.5 117.9 67L118 69.2ZM118 65.5C118.6 66 119.1 66.3 119.7 66.6C120.3 66.8 120.7 66.9 121.1 66.9C122.2 66.9 123 66.5 123.7 65.7C124.4 64.9 124.7 63.7 124.7 62.3C124.7 61.7 124.6 61.1 124.5 60.5C124.4 60 124.2 59.5 123.9 59.1C123.6 58.7 123.3 58.4 122.9 58.2C122.5 58 122 57.9 121.4 57.9C120.9 57.9 120.3 58 119.8 58.3C119.2 58.6 118.6 59 118 59.6V65.5Z" fill="black"/>
<path d="M130.5 51.1H132.5V55.8L132.4 58.6C133 57.9 133.7 57.4 134.4 57C135.1 56.6 135.9 56.4 136.8 56.4C138.2 56.4 139.2 56.8 139.9 57.6C140.5 58.4 140.9 59.6 140.9 61.1V68.3H138.9V61.3C138.9 60.2 138.7 59.4 138.3 58.8C137.9 58.2 137.2 58 136.2 58C135.8 58 135.5 58 135.2 58.1C134.9 58.2 134.6 58.3 134.3 58.5C134 58.7 133.7 58.9 133.4 59.2C133.1 59.5 132.8 59.8 132.4 60.1V68.2H130.4V51.1H130.5Z" fill="black"/>
<path d="M145.3 56.5H149.5V68.2H147.5V58.1H145.2V56.5H145.3ZM148.3 54.1C147.8 54.1 147.5 54 147.2 53.7C146.9 53.4 146.8 53.1 146.8 52.6C146.8 52.1 146.9 51.8 147.2 51.5C147.5 51.2 147.9 51.1 148.3 51.1C148.7 51.1 149.1 51.2 149.4 51.5C149.7 51.8 149.9 52.2 149.9 52.6C149.9 53 149.7 53.4 149.4 53.7C149.1 54 148.7 54.1 148.3 54.1Z" fill="black"/>
<path d="M154.9 62.4C154.9 61.4 155.1 60.6 155.4 59.8C155.7 59 156.2 58.4 156.8 57.9C157.4 57.4 158.1 57 158.9 56.7C159.7 56.4 160.5 56.3 161.4 56.3C162.4 56.3 163.2 56.5 163.9 56.8C164.6 57.1 165.2 57.5 165.7 58L164.7 59.3C164.2 58.9 163.7 58.6 163.2 58.3C162.7 58.1 162.1 57.9 161.5 57.9C160.8 57.9 160.2 58 159.7 58.2C159.1 58.4 158.7 58.7 158.3 59.1C157.9 59.5 157.6 60 157.4 60.5C157.2 61.1 157.1 61.7 157.1 62.3C157.1 62.9 157.2 63.6 157.4 64.1C157.6 64.6 157.9 65.1 158.3 65.5C158.7 65.9 159.2 66.2 159.7 66.4C160.3 66.6 160.9 66.7 161.5 66.7C162.2 66.7 162.9 66.6 163.5 66.3C164.1 66 164.6 65.7 165.1 65.3L166 66.6C165.4 67.2 164.6 67.6 163.9 67.9C163.1 68.2 162.3 68.4 161.4 68.4C160.5 68.4 159.6 68.3 158.9 68C158.1 67.7 157.4 67.3 156.9 66.8C156.3 66.3 155.9 65.6 155.6 64.9C155.1 64.2 154.9 63.4 154.9 62.4Z" fill="black"/>
<path d="M188 52.5H191.8C194.2 52.5 196 53.2 197.2 54.5C198.4 55.8 199.1 57.8 199.1 60.3C199.1 61.5 198.9 62.7 198.6 63.6C198.3 64.6 197.8 65.4 197.2 66.1C196.6 66.8 195.8 67.3 194.9 67.7C194 68.1 193 68.2 191.8 68.2H188V52.5ZM191.7 66.6C193.5 66.6 194.8 66 195.7 64.9C196.6 63.8 197 62.2 197 60.2C197 58.2 196.6 56.7 195.7 55.6C194.8 54.5 193.5 54 191.7 54H190V66.5H191.7V66.6Z" fill="black"/>
<path d="M202.1 62.4C202.1 61.4 202.3 60.6 202.6 59.8C202.9 59 203.4 58.4 203.9 57.9C204.4 57.4 205.1 57 205.8 56.7C206.5 56.4 207.2 56.3 208 56.3C208.8 56.3 209.6 56.4 210.2 56.7C210.9 57 211.4 57.3 211.9 57.8C212.4 58.3 212.7 58.9 212.9 59.5C213.1 60.2 213.3 60.9 213.3 61.7C213.3 62.1 213.3 62.5 213.2 62.8H204.1C204.2 64.1 204.6 65.1 205.4 65.8C206.2 66.5 207.3 66.9 208.5 66.9C209.2 66.9 209.8 66.8 210.4 66.6C211 66.4 211.5 66.1 212.1 65.8L212.8 67.1C212.2 67.5 211.6 67.8 210.8 68.1C210.1 68.4 209.2 68.5 208.3 68.5C207.4 68.5 206.6 68.4 205.9 68.1C205.1 67.8 204.5 67.4 203.9 66.9C203.3 66.4 202.9 65.7 202.6 65C202.3 64.2 202.1 63.4 202.1 62.4ZM211.5 61.5C211.5 60.3 211.2 59.4 210.6 58.8C210 58.2 209.1 57.9 208.1 57.9C207.6 57.9 207.2 58 206.7 58.2C206.3 58.4 205.9 58.6 205.5 58.9C205.1 59.2 204.8 59.6 204.6 60.1C204.4 60.6 204.2 61.1 204.1 61.7H211.5V61.5Z" fill="black"/>
<path d="M217.6 65.4C218.3 65.9 219 66.3 219.7 66.6C220.5 66.9 221.4 67 222.4 67C223.5 67 224.2 66.8 224.8 66.5C225.3 66.1 225.6 65.7 225.6 65.2C225.6 64.8 225.3 64.4 224.8 64C224.2 63.6 223.3 63.3 221.8 62.9C221.2 62.8 220.6 62.6 220.1 62.4C219.6 62.2 219.1 61.9 218.7 61.7C218.3 61.4 218 61.1 217.7 60.8C217.5 60.5 217.3 60.1 217.3 59.7C217.3 59.2 217.4 58.8 217.6 58.4C217.8 58 218.1 57.6 218.5 57.3C218.9 57 219.4 56.8 220 56.6C220.6 56.4 221.3 56.3 222.1 56.3C223 56.3 223.8 56.4 224.7 56.7C225.5 57 226.2 57.3 226.8 57.7L225.8 59C225.3 58.6 224.7 58.3 224.1 58.1C223.5 57.9 222.8 57.8 222.1 57.8C221.6 57.8 221.1 57.8 220.7 57.9C220.3 58 220 58.1 219.8 58.3C219.6 58.5 219.4 58.6 219.3 58.8C219.2 59 219.2 59.2 219.2 59.4C219.2 59.9 219.5 60.3 220.2 60.6C220.9 60.9 221.7 61.2 222.8 61.5C224.4 61.9 225.6 62.4 226.3 62.9C227.1 63.4 227.4 64.1 227.4 65C227.4 65.5 227.3 65.9 227.1 66.3C226.9 66.7 226.5 67.1 226.1 67.4C225.7 67.7 225.1 68 224.5 68.2C223.9 68.4 223.1 68.5 222.3 68.5C221.1 68.5 220.1 68.3 219.1 68C218.1 67.6 217.3 67.2 216.6 66.7L217.6 65.4Z" fill="black"/>
<path d="M239.3 70.3C239.3 69.8 239.5 69.4 239.8 68.9C240.1 68.4 240.6 68 241.2 67.7V67.6C240.9 67.4 240.6 67.2 240.4 66.9C240.2 66.6 240 66.2 240 65.7C240 65.3 240.1 65 240.4 64.6C240.6 64.2 241 63.9 241.4 63.6V63.5C241 63.2 240.7 62.8 240.4 62.3C240.1 61.8 240 61.2 240 60.5C240 59.9 240.1 59.3 240.4 58.8C240.6 58.3 241 57.9 241.4 57.5C241.8 57.1 242.3 56.9 242.9 56.7C243.5 56.5 244 56.4 244.7 56.4C245.3 56.4 245.9 56.5 246.4 56.7H251.2V58H248C248.3 58.3 248.5 58.6 248.7 59.1C248.9 59.5 249 60 249 60.5C249 61.1 248.9 61.7 248.7 62.2C248.5 62.7 248.1 63.1 247.7 63.5C247.3 63.8 246.8 64.1 246.3 64.3C245.7 64.5 245.2 64.6 244.5 64.6C244.2 64.6 243.9 64.6 243.5 64.5C243.2 64.4 242.8 64.3 242.5 64.2C241.9 64.6 241.6 65 241.6 65.5C241.6 66 241.8 66.3 242.2 66.5C242.6 66.7 243.2 66.8 244 66.8H246.6C248.1 66.8 249.2 67 249.9 67.4C250.6 67.8 251 68.5 251 69.5C251 70 250.8 70.6 250.5 71.1C250.2 71.6 249.8 72 249.2 72.4C248.6 72.8 248 73.1 247.2 73.3C246.4 73.5 245.5 73.6 244.5 73.6C242.8 73.6 241.5 73.3 240.5 72.8C239.8 72.2 239.3 71.4 239.3 70.3ZM241 70.1C241 70.7 241.3 71.2 242 71.6C242.6 72 243.6 72.2 244.8 72.2C245.5 72.2 246.1 72.1 246.6 72C247.1 71.9 247.6 71.7 248 71.5C248.4 71.3 248.7 71 248.9 70.7C249.1 70.4 249.2 70.1 249.2 69.8C249.2 69.2 249 68.9 248.5 68.7C248.1 68.5 247.4 68.4 246.5 68.4H244.2C243.9 68.4 243.5 68.4 243.3 68.4C243 68.4 242.7 68.3 242.5 68.2C241.9 68.5 241.6 68.8 241.3 69.1C241.2 69.5 241 69.8 241 70.1ZM244.6 63.2C245.4 63.2 246 63 246.5 62.5C247 62 247.3 61.3 247.3 60.5C247.3 60.1 247.2 59.7 247.1 59.4C247 59.1 246.8 58.8 246.5 58.5C246.2 58.2 246 58.1 245.6 57.9C245.3 57.8 244.9 57.7 244.6 57.7C244.2 57.7 243.9 57.8 243.6 57.9C243.3 58 243 58.2 242.7 58.5C242.4 58.8 242.3 59 242.1 59.4C242 59.7 241.9 60.1 241.9 60.5C241.9 61.3 242.2 62 242.7 62.5C243.2 63 243.9 63.2 244.6 63.2Z" fill="black"/>
<path d="M254.8 56.5H256.4L256.6 58.5H256.7C257.3 57.8 258 57.3 258.7 56.9C259.4 56.5 260.2 56.3 261.1 56.3C262.5 56.3 263.5 56.7 264.2 57.5C264.8 58.3 265.2 59.5 265.2 61V68.2H263.2V61.2C263.2 60.1 263 59.3 262.6 58.7C262.2 58.1 261.5 57.9 260.5 57.9C260.1 57.9 259.8 57.9 259.5 58C259.2 58.1 258.9 58.2 258.6 58.4C258.3 58.6 258 58.8 257.7 59.1C257.4 59.4 257.1 59.7 256.7 60V68.1H254.7V56.5H254.8Z" fill="black"/>
<path d="M231.4 56.5H235.6V68.2H233.6V58.1H231.3V56.5H231.4ZM234.4 54.1C233.9 54.1 233.6 54 233.3 53.7C233 53.4 232.9 53.1 232.9 52.6C232.9 52.1 233 51.8 233.3 51.5C233.6 51.2 234 51.1 234.4 51.1C234.8 51.1 235.2 51.2 235.5 51.5C235.8 51.8 236 52.2 236 52.6C236 53 235.8 53.4 235.5 53.7C235.2 54 234.8 54.1 234.4 54.1Z" fill="black"/>
</g>
<defs>
<clipPath id="clip0">
<rect width="265.2" height="73.6" fill="white"/>
</clipPath>
</defs>
</svg>
