<svg xmlns="http://www.w3.org/2000/svg" xmlns:xlink="http://www.w3.org/1999/xlink" version="1.1" x="0px" y="0px" viewBox="0 0 512 640" style="enable-background:new 0 0 512 512;" xml:space="preserve"><path d="M493.6572266,466.3432617L475.3139648,448H488c4.4179688,0,8-3.581543,8-8v-48c0-4.418457-3.5820313-8-8-8h-32h-88  c-2.1220703,0-4.15625,0.8427734-5.6572266,2.3432617L352,396.6860352V376V216c0-4.418457-3.5820313-8-8-8h-48h-32v-17.3762207  c6.807373-2.4143066,12.2094727-7.8164063,14.6237793-14.6237793h122.7524414c3.3024902,9.3112793,12.1948242,16,22.6237793,16  s19.3212891-6.6887207,22.6237793-16H488c4.4179688,0,8-3.581543,8-8s-3.5820313-8-8-8h-41.3762207  C444.2094727,153.192627,438.807373,147.7905273,432,145.3762207V128h56c4.4179688,0,8-3.581543,8-8V88c0-4.418457-3.5820313-8-8-8  h-8V64h8c4.4179688,0,8-3.581543,8-8V24c0-4.418457-3.5820313-8-8-8H360c-4.4179688,0-8,3.581543-8,8v32c0,4.418457,3.5820313,8,8,8  h8v16h-8c-4.4179688,0-8,3.581543-8,8v32c0,4.418457,3.5820313,8,8,8h56v17.3762207  C409.192627,147.7905273,403.7905273,153.192627,401.3762207,160H278.6237793  C276.2094727,153.192627,270.807373,147.7905273,264,145.3762207V128h56c4.4179688,0,8-3.581543,8-8V88c0-4.418457-3.5820313-8-8-8  h-8V64h8c4.4179688,0,8-3.581543,8-8V24c0-4.418457-3.5820313-8-8-8H192c-4.4179688,0-8,3.581543-8,8v32c0,4.418457,3.5820313,8,8,8  h8v16h-8c-4.4179688,0-8,3.581543-8,8v32c0,4.418457,3.5820313,8,8,8h56v17.3762207  C241.192627,147.7905273,235.7905273,153.192627,233.3762207,160H110.6237793  C108.2094727,153.192627,102.807373,147.7905273,96,145.3762207V128h56c4.4179688,0,8-3.581543,8-8V88c0-4.418457-3.5820313-8-8-8  h-8V64h8c4.4179688,0,8-3.581543,8-8V24c0-4.418457-3.5820313-8-8-8H24c-4.4179688,0-8,3.581543-8,8v32c0,4.418457,3.5820313,8,8,8  h8v16h-8c-4.4179688,0-8,3.581543-8,8v32c0,4.418457,3.5820313,8,8,8h56v17.3762207  C73.192627,147.7905273,67.7905273,153.192627,65.3762207,160H24c-4.4179688,0-8,3.581543-8,8s3.5820313,8,8,8h41.3762207  C68.6787109,185.3112793,77.5710449,192,88,192s19.3212891-6.6887207,22.6237793-16h122.7524414  c2.4143066,6.807373,7.8164063,12.2094727,14.6237793,14.6237793V208h-64H24c-4.4179688,0-8,3.581543-8,8v160v32  c0,4.418457,3.5820313,8,8,8h120v37.3330078l-22.4003906,29.8671875c-1.8173828,2.4238281-2.1103516,5.6674805-0.7548828,8.3774414  C122.2001953,494.2880859,124.9697266,496,128,496h112c3.0302734,0,5.7998047-1.7119141,7.1552734-4.4223633  c1.3554688-2.7099609,1.0625-5.9536133-0.7548828-8.3774414L224,453.3330078V416h108.6860352l-5.3725586,5.3725586  C322.5976563,426.0888672,320,432.359375,320,439.0292969c0,10.1636963,6.1069336,18.9223633,14.8413086,22.8154297  l-4.4985352,4.4985352c-3.1240234,3.1240234-3.1240234,8.1894531,0,11.3134766l16,16C347.84375,495.1572266,349.8779297,496,352,496  h120c2.1220703,0,4.15625-0.8427734,5.6572266-2.3432617l16-16  C496.78125,474.5327148,496.78125,469.4672852,493.6572266,466.3432617z M368,32h112v16h-8h-96h-8V32z M384,64h80v16h-80V64z   M368,96h8h96h8v16H368V96z M200,32h112v16h-8h-96h-8V32z M216,64h80v16h-80V64z M200,96h8h96h8v16H200V96z M32,32h112v16h-8H40h-8  V32z M48,64h80v16H48V64z M32,96h8h96h8v16H32V96z M424,160c4.4111328,0,8,3.5888672,8,8s-3.5888672,8-8,8s-8-3.5888672-8-8  S419.5888672,160,424,160z M256,160c4.4111328,0,8,3.5888672,8,8s-3.5888672,8-8,8s-8-3.5888672-8-8S251.5888672,160,256,160z   M88,176c-4.4111328,0-8-3.5888672-8-8s3.5888672-8,8-8s8,3.5888672,8,8S92.4111328,176,88,176z M336,368h-32v-36.6860352  l21.6572266-21.6572266c3.1240234-3.1240234,3.1240234-8.1894531,0-11.3134766L315.3134766,288l2.34375-2.3432617  c2.2880859-2.2880859,2.9716797-5.7290039,1.7333984-8.7182617S315.2353516,272,312,272h-8v-24v-24h32V368z M192,256h96v16h-16  c-4.4179688,0-8,3.581543-8,8v40c0,3.2358398,1.9492188,6.152832,4.9384766,7.3911133  c2.9912109,1.2397461,6.4296875,0.5527344,8.71875-1.734375L280,323.3134766l8,8.0003662V368h-96V256z M296.0002441,316.6862793  l-10.3430176-10.3430176C284.0947266,304.78125,282.0478516,304,280,304v-16h16c0,2.0473633,0.78125,4.0947266,2.3427734,5.6567383  L308.6865234,304L296.0002441,316.6862793z M288,224v16h-96v-16H288z M32,224h144v24v120H32V224z M32,384h152h112h40v16H216h-64H32  V384z M144,480l12-16h56l12,16H144z M208,448h-48v-32h48V448z M480,432h-16v-32h16V432z M344.9707031,448  C340.0244141,448,336,443.9755859,336,439.0292969c0-2.3959961,0.9335938-4.6489258,2.6279297-6.3432617L371.3134766,400H448v32h-8  c-0.3525391,0-0.7006836,0.0316162-1.0461426,0.0772705c-0.0864258,0.0113525-0.171875,0.024292-0.2575684,0.0384521  c-0.3388672,0.0559082-0.6740723,0.1260986-1.0009766,0.2246094c-0.0053711,0.0014648-0.0107422,0.0023193-0.0161133,0.0039063  c-0.3330078,0.1010742-0.6555176,0.230957-0.9724121,0.3742676c-0.0778809,0.0351563-0.1542969,0.0714111-0.230957,0.1091309  c-0.3154297,0.1550293-0.6245117,0.3232422-0.9182129,0.5192871L413.578125,448H392c-4.4111328,0-8-3.5888672-8-8s3.5888672-8,8-8h8  c4.4179688,0,8-3.581543,8-8s-3.5820313-8-8-8h-16c-2.1220703,0-4.15625,0.8427734-5.6572266,2.3432617l-27.0292969,27.0292969  C349.6191406,447.0668945,347.3671875,448,344.9707031,448z M468.6865234,480H355.3134766l-8-8l15.3041992-15.3041992  c0.003418-0.003418,0.0068359-0.0063477,0.0102539-0.0097656l7.2880859-7.2885742C373.5800781,457.9736328,382.0996094,464,392,464  h24h8c2.1220703,0,4.15625-0.8427734,5.6572266-2.3432617L443.3134766,448h9.3730469l24,24L468.6865234,480z M152,240H88  c-4.4179688,0-8,3.581543-8,8v24H56c-4.4179688,0-8,3.581543-8,8v64c0,4.418457,3.5820313,8,8,8h64c4.4179688,0,8-3.581543,8-8v-24  h24c4.4179688,0,8-3.581543,8-8v-64C160,243.581543,156.4179688,240,152,240z M112,336H64v-48h16v24c0,4.418457,3.5820313,8,8,8h24  V336z M144,304h-24H96v-24v-24h48V304z M208,280c0-4.418457,3.5820313-8,8-8h24c4.4179688,0,8,3.581543,8,8s-3.5820313,8-8,8h-24  C211.5820313,288,208,284.418457,208,280z M208,312c0-4.418457,3.5820313-8,8-8h24c4.4179688,0,8,3.581543,8,8s-3.5820313,8-8,8h-24  C211.5820313,320,208,316.418457,208,312z M272,344c0,4.418457-3.5820313,8-8,8h-48c-4.4179688,0-8-3.581543-8-8s3.5820313-8,8-8h48  C268.4179688,336,272,339.581543,272,344z"/><text x="0" y="527" fill="#000000" font-size="5px" font-weight="bold" font-family="'Helvetica Neue', Helvetica, Arial-Unicode, Arial, Sans-serif">Created by Chaowalit  Koetchuea</text><text x="0" y="532" fill="#000000" font-size="5px" font-weight="bold" font-family="'Helvetica Neue', Helvetica, Arial-Unicode, Arial, Sans-serif">from the Noun Project</text></svg>