<svg xmlns="http://www.w3.org/2000/svg" xmlns:xlink="http://www.w3.org/1999/xlink" version="1.1" x="0px" y="0px" viewBox="0 0 60 75" style="enable-background:new 0 0 60 60;" xml:space="preserve"><g><path d="M17,39H7c-3.86,0-7,3.14-7,7v14h2V46c0-2.757,2.243-5,5-5h10c2.757,0,5,2.243,5,5v14h2V46C24,42.14,20.86,39,17,39z"/><path d="M11,38h2c2.757,0,5-2.243,5-5v-3c0-2.757-2.243-5-5-5h-2c-2.757,0-5,2.243-5,5v3C6,35.757,8.243,38,11,38z M8,30   c0-1.654,1.346-3,3-3h2c1.654,0,3,1.346,3,3v3c0,1.654-1.346,3-3,3h-2c-1.654,0-3-1.346-3-3V30z"/><rect x="5" y="49" width="2" height="11"/><rect x="17" y="49" width="2" height="11"/><path d="M59.987,10.937c-0.006-0.088-0.023-0.173-0.051-0.257c-0.011-0.032-0.019-0.063-0.034-0.094   c-0.049-0.106-0.11-0.207-0.196-0.293l-10-10c-0.086-0.086-0.187-0.147-0.293-0.196c-0.031-0.014-0.061-0.022-0.093-0.033   c-0.084-0.029-0.17-0.046-0.258-0.051C49.041,0.011,49.022,0,49,0H9C8.448,0,8,0.448,8,1v20h2V2h38v9c0,0.552,0.448,1,1,1h9v7h2v-8   C60,10.978,59.989,10.959,59.987,10.937z M50,10V3.414L56.586,10H50z"/><path d="M60,31c0-7.72-6.28-14-14-14s-14,6.28-14,14c0,6.247,4.073,11.651,10,13.407V48h-2c-0.552,0-1,0.448-1,1v9H28v2h12h12h7   c0.552,0,1-0.448,1-1V43h-2v15h-5v-9c0-0.552-0.448-1-1-1h-2v-3.593C55.927,42.651,60,37.247,60,31z M51,58H41v-1h5v-2h-5v-2h5v-2   h-5v-1h2h6h2V58z M44,48v-4.361c0-0.463-0.318-0.866-0.77-0.973C37.795,41.379,34,36.582,34,31c0-6.617,5.383-12,12-12   s12,5.383,12,12c0,5.582-3.795,10.379-9.23,11.666c-0.451,0.107-0.77,0.51-0.77,0.973V48H44z"/><path d="M56,31c0-5.514-4.486-10-10-10s-10,4.486-10,10s4.486,10,10,10S56,36.514,56,31z M46,39c-4.411,0-8-3.589-8-8s3.589-8,8-8   s8,3.589,8,8S50.411,39,46,39z"/><rect x="13" y="5" width="2" height="2"/><rect x="13" y="9" width="16" height="2"/><rect x="17" y="5" width="2" height="2"/><rect x="13" y="15" width="2" height="2"/><rect x="17" y="15" width="2" height="2"/><rect x="13" y="19" width="2" height="2"/><rect x="17" y="19" width="10" height="2"/><rect x="45" y="26" width="2" height="2"/><rect x="45" y="34" width="2" height="2"/><rect x="41" y="30" width="2" height="2"/><rect x="49" y="30" width="2" height="2"/></g><text x="0" y="75" fill="#000000" font-size="5px" font-weight="bold" font-family="'Helvetica Neue', Helvetica, Arial-Unicode, Arial, Sans-serif">Created by Unlimiticon</text><text x="0" y="80" fill="#000000" font-size="5px" font-weight="bold" font-family="'Helvetica Neue', Helvetica, Arial-Unicode, Arial, Sans-serif">from the Noun Project</text></svg>